<svg width="1200" height="800" viewBox="0 0 1200 800" fill="none" xmlns="http://www.w3.org/2000/svg">
<path d="M757.741 369.738C671.783 318.69 529.998 313.997 447.94 338.901C434.76 342.899 420.827 335.462 416.836 322.284C412.843 309.099 420.273 295.173 433.458 291.168C527.658 262.576 684.243 268.097 783.2 326.838C795.055 333.877 798.938 349.183 791.915 361.014C784.884 372.867 769.563 376.777 757.739 369.738M754.925 445.346C748.895 455.133 736.099 458.201 726.326 452.193C654.667 408.144 545.388 395.381 460.605 421.117C449.612 424.436 437.998 418.241 434.659 407.265C433.068 401.988 433.633 396.296 436.232 391.436C438.831 386.576 443.251 382.944 448.523 381.338C545.374 351.946 665.777 366.18 748.085 416.763C757.858 422.781 760.934 435.582 754.925 445.346ZM722.295 517.958C721.159 519.823 719.667 521.447 717.903 522.735C716.139 524.023 714.138 524.95 712.016 525.464C709.893 525.978 707.69 526.068 705.532 525.729C703.374 525.39 701.305 524.629 699.442 523.489C636.822 485.217 558.003 476.574 465.179 497.777C463.052 498.263 460.85 498.326 458.699 497.961C456.548 497.597 454.49 496.812 452.642 495.651C450.794 494.491 449.193 492.978 447.931 491.199C446.668 489.419 445.768 487.409 445.282 485.282C444.793 483.154 444.729 480.951 445.092 478.798C445.456 476.646 446.241 474.586 447.402 472.737C448.563 470.888 450.077 469.287 451.858 468.024C453.639 466.761 455.651 465.862 457.78 465.378C559.359 442.16 646.492 452.152 716.78 495.102C718.644 496.24 720.264 497.735 721.55 499.499C722.836 501.264 723.761 503.265 724.274 505.387C724.786 507.51 724.875 509.712 724.536 511.869C724.197 514.026 723.434 516.095 722.295 517.958ZM599.995 133.333C452.726 133.333 333.333 252.722 333.333 399.995C333.333 547.283 452.726 666.667 599.998 666.667C747.276 666.667 866.667 547.283 866.667 399.995C866.667 252.724 747.276 133.333 599.995 133.333Z" fill="white"/>
</svg>
